<svg xmlns="http://www.w3.org/2000/svg"  viewBox="0 0 50 50" width="50px" height="50px"><path fill="#38BDF8" d="M 17.140625 19 C 14.489625 19 11.947266 20.052734 10.072266 21.927734 L 1.7070312 30.292969 C 1.0770313 30.922969 1.5230625 32 2.4140625 32 L 7 32 L 14.080078 24.919922 C 14.910078 24.079922 16 23 19 23 L 36 23 L 40 19 L 17.140625 19 z M 43 19 L 31.707031 30.292969 C 31.077031 30.922969 31.523063 32 32.414062 32 L 36.585938 32 C 36.850937 32 37.104969 31.895031 37.292969 31.707031 L 48.292969 20.707031 C 48.922969 20.077031 48.476937 19 47.585938 19 L 43 19 z M 19 25 C 18.08 25 17 25 15 27 L 10 32 L 15.216797 32 C 15.481797 32 15.735828 31.895031 15.923828 31.707031 L 18.039062 29.589844 C 18.409062 29.209844 18.919219 29 19.449219 29 L 30 29 L 34 25 L 19 25 z"/></svg>